<svg xmlns="http://www.w3.org/2000/svg" xmlns:xlink="http://www.w3.org/1999/xlink" width="500" zoomAndPan="magnify" viewBox="0 0 375 374.999991" height="500" preserveAspectRatio="xMidYMid meet" version="1.0"><path fill="#000000" d="M 211.152344 0 C 229.207031 35.992188 146.503906 58.183594 138.804688 88.152344 C 131.765625 115.695312 187.894531 147.714844 187.945312 147.714844 C 179.410156 136.324219 173.242188 126.890625 164.671875 109.148438 C 150.199219 79.148438 250.195312 48.203125 211.152344 0 Z M 269.492188 49.238281 C 269.492188 49.238281 207.125 53.027344 203.941406 91.039062 C 202.527344 107.960938 220.324219 116.988281 220.832031 129.3125 C 221.261719 139.359375 210.191406 147.714844 210.191406 147.714844 C 210.191406 147.714844 228.476562 144.914062 234.746094 129.570312 C 241.6875 112.550781 223.042969 100.125 225.128906 86.488281 C 227.113281 73.453125 269.492188 49.238281 269.492188 49.238281 Z M 157.300781 147.746094 C 157.300781 147.746094 88.960938 146.753906 88.960938 166.433594 C 88.960938 175.820312 108 181.035156 134.316406 182.941406 C 123.648438 183.410156 108.640625 191.792969 108.640625 199.996094 C 108.640625 216.964844 189.113281 230.035156 248.6875 205.253906 L 228.078125 191.820312 C 187.867188 205.464844 113.964844 201.148438 135.054688 183.007812 C 166.363281 185.179688 207.914062 182.644531 242.40625 175.824219 C 242.40625 175.824219 256.933594 167.609375 261.476562 163.195312 C 219.578125 171.863281 126.496094 169.351562 126.496094 161.816406 C 126.496094 154.875 157.300781 147.746094 157.300781 147.746094 Z M 295.648438 147.746094 C 288.136719 147.417969 279.910156 149.914062 272.824219 155.148438 C 287.613281 151.835938 300.105469 161.242188 300.105469 172.109375 C 300.105469 196.53125 266.222656 219.679688 266.222656 219.679688 C 266.222656 219.679688 318.726562 213.421875 318.726562 173.261719 C 318.726562 156.675781 308.167969 148.289062 295.648438 147.746094 Z M 150.410156 218.972656 C 135.703125 218.972656 126.175781 229.183594 126.175781 236.667969 C 126.175781 259.824219 213.925781 260.636719 248.71875 237.085938 L 226.601562 222.820312 C 200.621094 235.144531 135.390625 236.828125 150.410156 218.972656 Z M 86.972656 257.566406 C 65.824219 256.886719 56.136719 267.980469 56.136719 277.027344 C 56.136719 325.148438 285.902344 322.816406 285.902344 273.660156 C 285.902344 265.488281 277.003906 261.601562 273.789062 259.746094 C 292.546875 306.753906 83.574219 303.53125 83.574219 275.777344 C 83.574219 269.457031 94.625 263.027344 108.707031 265.964844 C 108.707031 265.964844 103.5625 259.839844 96.75 258.625 C 93.257812 258.007812 89.996094 257.664062 86.972656 257.566406 Z M 318.726562 290.617188 C 282.605469 327.203125 183.179688 349.40625 91.140625 326.839844 C 183.605469 365.589844 318.285156 335.507812 318.726562 290.617188 Z M 318.726562 290.617188 " fill-opacity="1" fill-rule="nonzero"/></svg>